name processed_emg_signals
nRows=99
nColumns=7
 
endheader
time	LGLTMED	LRF	LADDLONG	LST	LTA	LGM
2.015	0.7110001650689489	0.1240396771264235	0.0775873077962165	0.2528438838435868	0.1858123299895353	0.6673025973782662
2.016	0.7114677174949398	0.1264397252481925	0.0787571723949519	0.2497773077464533	0.1861608056486879	0.6615645667035548
2.017	0.7117638643147413	0.1288516921401716	0.0799487762868044	0.2467685548750491	0.1865004344301393	0.6558772662310545
2.0180000000000002	0.7118887122829284	0.1312740737200673	0.0811616981262942	0.2438172999595834	0.1868317458987428	0.650244453869578
2.019	0.7118425023654122	0.1337053623766849	0.0823954895480925	0.2409231168516674	0.1871552964603703	0.644669759976063
2.02	0.7116256086532663	0.1361440477695772	0.0836496751892979	0.2380854818100873	0.18747166831313	0.6391566855476806
2.021	0.7112385371312524	0.138588617608017	0.0849237527385735	0.2353037769521974	0.1877814683097405	0.6337086005631176
2.0220000000000002	0.7106819243161064	0.1410375584094536	0.0862171930126396	0.2325772938635541	0.188085326734491	0.6283287424621811
2.023	0.7099565357785579	0.1434893562375348	0.0875294400605571	0.2299052373581136	0.1883838959981755	0.6230202147517352
2.024	0.7090632645616519	0.1459424974198065	0.0888599112962745	0.2272867293810296	0.1886778492543835	0.6177859857252599
2.025	0.7080031295066999	0.1483954692451088	0.0902079976597377	0.2247208130457578	0.1889678789406345	0.6126288872835385
2.0260000000000002	0.706777273496721	0.1508467606407722	0.0915730638067964	0.2222064567971249	0.1892546952479985	0.6075516138451007
2.027	0.7053869616259829	0.1532948628296128	0.0929544483279759	0.2197425586917456	0.1895390245230462	0.6025567213370603
2.028	0.7038335793027876	0.1557382699668418	0.0943514639960493	0.2173279507871332	0.189821607606187	0.5976466262599482
2.029	0.7021186302912448	0.158175479757109	0.0957633980421838	0.2149614036304679	0.1901031981107123	0.5928236048240303
2.0300000000000002	0.7002437346966	0.1606049940523387	0.0971895124603066	0.212641630837862	0.1903845606470038	0.5880897921588738
2.031	0.698210626897875	0.163025319431562	0.0986290443392687	0.21036729375472	0.1906664689965396	0.5834471816016261
2.032	0.696021153430989	0.1654349677647134	0.1000812062223932	0.2081370061876378	0.1909497042403959	0.5788976240718382
2.033	0.6936772708248438	0.1678324567630404	0.1015451864940177	0.205949339197943	0.1912350528470943	0.5744428275414957
2.0340000000000003	0.6911810433921001	0.1702163105193787	0.1030201497927326	0.2038028259466035	0.1915233047246821	0.5700843566086722
2.035	0.688534640975719	0.1725850600419718	0.1045052374511233	0.2016959665797081	0.1918152512420367	0.5658236321827204
2.036	0.6857403366517798	0.1749372437858259	0.1059995679620001	0.1996272331430469	0.1921116832241931	0.5616619312884545
2.037	0.6828005043884076	0.1772714081858284	0.1075022374714456	0.1975950745136144	0.1924133889263446	0.5576003869962404
2.0380000000000003	0.6797176166593982	0.1795861081960889	0.1090123202993438	0.1955979213351855	0.1927211519909856	0.5536399884841436
2.039	0.6764942420096417	0.1818799078399681	0.1105288694885767	0.1936341909443446	0.193035749392782	0.5497815812375235
2.04	0.6731330425678588	0.1841513807754661	0.1120509173843834	0.1917022922726948	0.1933579493760039	0.5460258673908576
2.041	0.6696367715009689	0.186399110880544	0.113577476245692	0.1898006307102635	0.1936885093897021	0.5423734062163624
2.0420000000000003	0.6660082704039223	0.1886216928628518	0.1151075388903486	0.1879276129145671	0.1940281740261097	0.5388246147635019
2.043	0.6622504666189518	0.1908177328979818	0.1166400793762629	0.1860816515492619	0.1943776729679373	0.5353797686529327
2.044	0.6583663704787075	0.1929858493000444	0.1181740537205099	0.184261169935835	0.1947377189501815	0.5320390030273631
2.045	0.6543590724679377	0.1951246732281403	0.1197084006584339	0.1824646066013645	0.1951090057417367	0.528802313660628
2.0460000000000003	0.6502317402982744	0.1972328494321316	0.1212420424446818	0.1806904197048955	0.1954922061516612	0.525669558225244
2.047	0.6459876158907878	0.1993090370408105	0.1227738856980416	0.1789370913245763	0.1958879700644664	0.5226404577179303
2.048	0.6416300122616743	0.2013519103954742	0.1243028222918917	0.177203131587644	0.1962969225083568	0.5197145980421589
2.049	0.6371623103075349	0.2033601599315312	0.1258277302919566	0.1754870826255362	0.1967196617601392	0.5168914317463232
2.05	0.6325879554878092	0.2053324931105239	0.1273474749429595	0.1737875223368205	0.1971567574903745	0.514170279915839
2.051	0.6279104544028448	0.2072676354045186	0.1288609097054402	0.1721030679410524	0.1976087489526013	0.5115503342175075
2.052	0.6231333712670384	0.2091643313342382	0.1303668773437868	0.1704323793071044	0.1980761432208984	0.5090306590951077
2.053	0.618260324277395	0.2110213455618613	0.13186421106619	0.1687741620403185	0.1985594134806678	0.506610194116112
2.054	0.6132949818784448	0.2128374640388326	0.133351735716881	0.1671271703145103	0.1990589973782061	0.5042877564705663
2.055	0.6082410589249716	0.2146114952085149	0.1348282690207445	0.1654902094372261	0.1995752954350479	0.5020620436238041
2.056	0.6031023127444985	0.2163422712630515	0.1362926228799824	0.1638621381397433	0.2001086695331234	0.4999316361247527
2.057	0.5978825391019539	0.2180286494532669	0.1377436047221724	0.1622418705866793	0.2006594414765917	0.497895000571102
2.058	0.5925855680691441	0.2196695134499338	0.1391800188985576	0.1606283781036059	0.2012278916357464	0.4959504927318441
2.059	0.5872152598015538	0.2212637747541233	0.1406006681310617	0.1590206906242894	0.201814257677965	0.4940963608269884
2.06	0.5817755002249605	0.2228103741539137	0.1420043550061064	0.157417897861861	0.2024187333901684	0.4923307489634094
2.061	0.5762701966346264	0.2243082832243303	0.1433898835130204	0.1558191502107464	0.2030414675967699	0.4906517007249639
2.062	0.5707032732102245	0.2257565058671166	0.1447560606246153	0.1542236593881856	0.203682563176495	0.4890571629140259
2.063	0.5650786664502305	0.2271540798867221	0.1461016979172774	0.1526306988257949	0.2043420761809218	0.4875449894407508
2.064	0.559400320530381	0.2285000785986115	0.1474256132277745	0.1510396038226849	0.2050200150570849	0.4861129453554261
2.065	0.5536721825920875	0.2297936124654908	0.1487266323438253	0.1494497714724592	0.2057163399760588	0.484758711018336
2.066	0.5478981979678155	0.2310338307565815	0.1500035907252965	0.1478606603770368	0.206430962269051	0.4834798864005476
2.067	0.5420823053511711	0.2322199232243516	0.1512553352528303	0.1462717901605367	0.2071637439720213	0.4822739955079039
2.068	0.5362284319196501	0.2333511217926276	0.1524807260004392	0.1446827407964444	0.207914497479401	0.481138490919534
2.069	0.5303404884183134	0.2344267022495307	0.1536786380284583	0.1430931517610777	0.2086829853070401	0.4800707584314107
2.07	0.5244223642132332	0.2354459859382501	0.1548479631929264	0.1415027210260692	0.2094689199642149	0.4790681217951386
2.071	0.5184779223243439	0.23640834143833	0.1559876119671826	0.1399112039023109	0.2102719639344756	0.4781278475422557
2.072	0.5125109944481826	0.2373131862296872	0.1570965152711156	0.1383184117474721	0.2110917297650276	0.4772471498846022
2.073	0.5065253759817934	0.2381599883312948	0.1581736263031444	0.1367242105488297	0.2119277802642899	0.4764231956818719
2.074	0.5005248210603519	0.2389482679061388	0.1592179223696995	0.1351285193929099	0.2127796288070312	0.4756531094682782
2.075	0.4945130376228031	0.2396775988237443	0.1602284067067732	0.1335313088330288	0.2136467397461901	0.474933978531085
2.076	0.4884936825216982	0.2403476101711668	0.161204110287837	0.1319325991655515	0.2145285289302667	0.4742628580344714
2.077	0.482470356694966	0.240957987703059	0.1621440936122195	0.1303324586252053	0.2154243643250343	0.4736367761821251
2.078	0.4764466004185403	0.2415084752213524	0.163047448467756	0.1287310015094806	0.2163335667382568	0.4730527394114563
2.079	0.4704258886593436	0.2419988758751426	0.1639132996614442	0.1271283862416624	0.2172554106458407	0.4725077376113589
2.08	0.4644116265481285	0.242429053371548	0.1647408067118487	0.1255248133817353	0.2181891251176321	0.4719987493543993
2.081	0.4584071449909306	0.2427989330882548	0.1655291654969876	0.123920523593887	0.219133894840732	0.4715227471334726
2.082	0.4524156964366927	0.2431085030785364	0.1662776098515203	0.1223157955790182	0.2200888612378668	0.4710767025921528
2.083	0.4464404508172231	0.2433578149597168	0.1669854131069959	0.1207109439801808	0.2210531236779803	0.4706575917371597
2.084	0.4404844916743303	0.2435469846764389	0.1676518895690839	0.119106317268519	0.2220257407757989	0.4702624001205733
2.085	0.4345508124876934	0.2436761931306065	0.1682763959259602	0.1175022956168395	0.2230057317767912	0.4698881279783736
2.086	0.4286423132159667	0.2437456866706881	0.1688583325823186	0.1158992887675649	0.2239920780236286	0.4695317953109387
2.087	0.4227617970626042	0.2437557774342549	0.169397144914036	0.1142977339014797	0.2249837245002334	0.4691904468903621
2.088	0.4169119674768572	0.2437068435390539	0.1698923244392215	0.1126980935132562	0.2259795814495974	0.4688611571791609
2.089	0.411095425399451	0.2435993291193922	0.1703434099022371	0.1111008532994781	0.2269785260618083	0.4685410351450748
2.09	0.4053146667613924	0.2434337442057658	0.1707499882677975	0.1095065200644999	0.2279794042288695	0.4682272289574369
2.091	0.3995720802434869	0.2432106644465964	0.1711116956226421	0.1079156196490618	0.2289810323627511	0.4679169305515886
2.092	0.3938699453030287	0.2429307306717864	0.171428217982453	0.106328694886277	0.2299821992728363	0.4676073800490966
2.093	0.3882104304730799	0.2425946482983493	0.1716992920020876	0.1047463035891885	0.23098166809871	0.4672958700226282
2.094	0.3825955919385761	0.242203186578829	0.1719247055875231	0.1031690165737217	0.231978178294238	0.4669797495948874
2.095	0.3770273723923894	0.2417571776937339	0.172104298408265	0.1015974157206069	0.2329704476592159	0.4666564283608186
2.096	0.3715076001734528	0.241257515689804	0.1722379623091938	0.1000320920794566	0.2339571744151656	0.4663233801220082
2.097	0.3660379886879401	0.2407051552667187	0.1723256416211493	0.0984736440179542	0.2349370393219292	0.4659781464222853
2.098	0.3606201361133599	0.2401011104158273	0.1723673333698164	0.0969226754188376	0.2359087078316259	0.465618339874534
2.099	0.355255525384161	0.2394464529154085	0.1723630873827812	0.0953797939271511	0.2368708322764474	0.4652416472704745
2.1	0.3499455244563084	0.2387423106878293	0.1723130062950302	0.0938456092500493	0.2378220540867773	0.4648458324672277
2.101	0.3446913868472146	0.2379898660242623	0.1722172454536482	0.0923207315112264	0.2387610060363665	0.4644287390467074
2.102	0.3394942524464933	0.2371903536825126	0.1720760127229957	0.090805769661873	0.2396863145115722	0.463988292745943
2.103	0.3343551485920474	0.2363450588632671	0.1718895681919869	0.0893013299497217	0.2405966018021155	0.4635225036581628
2.104	0.3292749914053597	0.2354553150698377	0.171658223785297	0.087808014447587	0.2414904884110242	0.4630294682062778
2.105	0.3242545873792388	0.2345225018563592	0.1713823427801697	0.0863264196424151	0.2423665953815367	0.4625073708917621
2.106	0.3192946352108012	0.2335480424691959	0.1710623392303604	0.0848571350857601	0.2432235466385404	0.4619544858228303
2.107	0.3143957278719912	0.2325334013862657	0.1706986772984491	0.0834007421063755	0.2440599713417625	0.4613691780264105
2.108	0.3095583549092393	0.2314800817591586	0.1702918704976161	0.0819578125854743	0.2448745062474712	0.4607499045491633
2.109	0.3047829049631271	0.2303896227634018	0.1698424808438969	0.080528907795161	0.245665798075064	0.4600952153539344
2.11	0.3000696684979074	0.2292635968631131	0.1693511179199086	0.0791145773004105	0.2464325058745926	0.4594037540189786
2.111	0.2954188407297016	0.2281036069971315	0.1688184378511263	0.0777153579249594	0.2471733033910124	0.458674258247906
2.112	0.2908305247410471	0.2269112836945135	0.1682451421959181	0.0763317727813674	0.2478868814207041	0.4579055601981566
2.113	0.2863047347683842	0.2256882821277006	0.167631976750733	0.0749643303653781	0.2485719501556093	0.4570965866354467
